<svg xmlns="http://www.w3.org/2000/svg" viewBox="0 0 623.59 261.5"><defs><style>.a{fill:#fff;}</style></defs><title>titling-from-SR</title><path class="a" d="M0,94.14,8.67,93V3.3L0,2.2V0H75V27.11h-2.2L61.52,2.48H30V46.66H47.21l6.6-18.17h2.34V67.3H53.81l-6.6-18.16H30V93l10.6,1.1v2.2H0Z"/><path class="a" d="M83.68,78v-42l-7.16.69v-2.2L101.43,30h2.2V78.45c0,6.2,2.48,8.81,6.89,8.81,3.3,0,5.78-1.38,9.22-3.44l3.85-2.2V36.06l-7.16.69-.13-2.2L140.52,30h2.2V77.9a49.14,49.14,0,0,0,1.52,12.8l6-.41.28,2.2-24.09,4.82L123.87,84,100.74,98.41C86.71,98.41,83.68,91.94,83.68,78Z"/><path class="a" d="M156.35,94.14l7.29-1.1V35.78l-7.43,1.38-.28-2.2,23.4-5.23h2.34l1,23,11.84-23h10.87V49h-18l-4.54,6.88v37l11.56,1.24v2.2h-38Z"/><path class="a" d="M210.85,94.14l7.29-1.1v-57l-7.43,1.24L210.43,35l24.64-5.23h2.2V44l24.36-15c13.77,0,16.52,6.19,16.52,20.1V93l8,1.1v2.2H253v-2.2l5.23-1.1V48.45c0-5.92-2.2-8.4-6.33-8.4s-6.74,1.79-10.74,4.13l-3.85,2.34V93l5.23,1.1v2.2H210.85Z"/><path class="a" d="M289.43,81.34a17.59,17.59,0,0,1,7.57-15l30.42-9.22V44.73c0-7-.55-11.29-8.54-11.29a18.33,18.33,0,0,0-6.19,1.11L309.94,52.3H292v-12L320.67,29c17.9,0,26.7,3.85,26.7,20.23V79.14a39.55,39.55,0,0,0,1.93,12l6.19-.68.28,2.2-24.5,5L328,86.3,309.11,98.41C298.24,98.41,289.43,92.77,289.43,81.34Zm35.78,4.27L327.42,84V59.32l-12.11,4.54c-3.45,3-5.37,7-5.37,12.8,0,7.16,3.16,11.7,7.71,11.7C320.4,88.36,323.43,86.71,325.21,85.61Z"/><path class="a" d="M357.42,66.75c0-22,16.65-34.41,34.82-37.71,6.47,0,14.59,3.3,20.09,7.43V51.61H396.78L392.1,33.17a8.09,8.09,0,0,0-3.44-.69c-6.74,0-14,5.92-14,22.44,0,16.92,9.36,29.31,23.12,29.31,5.92,0,9.78-1.37,15-4.68l.69,1.24c-8.26,8.12-14.32,12.66-24.09,17.62C371.18,98.41,357.42,86.16,357.42,66.75Z"/><path class="a" d="M476.74,80.24c-8.8,8.81-15.41,13.35-25.87,18.17-17.76,0-32.62-11.7-32.62-31.66,0-21.33,15.28-34.13,33.31-37.71,14,0,25.05,8.26,25.05,24.77V59H435.45c1.52,14.87,10.46,24.5,23.95,24.5,6.2,0,10.87-1.92,16.1-5ZM435.32,54.78v2.06h21.19V51.06c0-11.42-2.2-17.89-9.91-17.89C439.17,33.17,435.32,40.05,435.32,54.78Z"/><path class="a" d="M.41,213.05a17.59,17.59,0,0,1,7.57-15l30.42-9.22V176.44c0-7-.55-11.28-8.53-11.28a18.34,18.34,0,0,0-6.2,1.1L20.92,184H3V172l28.63-11.29c17.89,0,26.7,3.86,26.7,20.23v29.87a39.53,39.53,0,0,0,1.92,12l6.2-.68.27,2.2-24.5,4.95L39,218,20.09,230.12C9.22,230.12.41,224.48.41,213.05Zm35.79,4.27,2.2-1.65V191l-12.11,4.54c-3.44,3-5.37,7-5.37,12.8,0,7.16,3.17,11.7,7.71,11.7C31.38,220.07,34.41,218.42,36.2,217.32Z"/><path class="a" d="M71.57,225.85l7.29-1.1v-57L71.43,169l-.28-2.34,24.64-5.23H98v14.31l24.36-15c13.77,0,16.52,6.2,16.52,20.1v43.9l8,1.1v2.2H113.68v-2.2l5.23-1.1V180.16c0-5.92-2.2-8.4-6.33-8.4s-6.74,1.79-10.73,4.13L98,178.23v46.52l5.23,1.1v2.2H71.57Z"/><path class="a" d="M149.74,198.74c0-18.44,8.39-33.58,30-38a25,25,0,0,1,13.9,3.72V135.56l-7.15,1-.28-2.48,24.36-4h2.2v80.65c0,5.37.28,7.85,1.93,12l7-.55.28,2.2-24.09,4.95-3.85-13.35L176.3,230.12C161.3,230.12,149.74,216.77,149.74,198.74Zm42,16.24,1.92-1.38V168.32a9.87,9.87,0,0,0-7.57-3.44c-10.46.14-15.27,10.74-15.27,26.84,0,15.41,4.54,26.43,12.8,26.43C186.62,218.15,188,217.46,191.72,215Z"/><path class="a" d="M260.25,225.85l8.67-1.1V135l-8.67-1.1v-2.2h75v27.11h-2.2l-11.28-24.63H290.26v44.18h17.2l6.61-18.17h2.34V199h-2.34l-6.61-18.16h-17.2v43.9l10.6,1.1v2.2H260.25Z"/><path class="a" d="M343.93,209.75v-42l-7.16.69v-2.2l24.92-4.55h2.2v48.45c0,6.2,2.48,8.81,6.88,8.81,3.3,0,5.78-1.38,9.22-3.44l3.86-2.2V167.77l-7.16.69-.14-2.2,24.22-4.55H403v47.9a49.6,49.6,0,0,0,1.51,12.8l6.06-.41.27,2.2L386.74,229l-2.62-13.35L361,230.12C347,230.12,343.93,223.65,343.93,209.75Z"/><path class="a" d="M414,246v-2.62l16-11.56c-9.08-2.06-13.08-7.43-13.08-14v-2.89l14.32-11.15c-8.54-3.44-14-10.46-14-19.27.14-12.52,10.6-19.26,29.18-23.67,12.38,0,21.88,5.78,24.91,14.32l6.19-14.32h7v16.52H472.34l-.55.55a9.26,9.26,0,0,1,.83,3.85c-.14,12.94-10.05,19.55-29,24.23a34.54,34.54,0,0,1-10.19-1.38l-4.54,4.54c0,4.13,2.75,5.92,6.88,5.92h30c9.64,0,14.59,6.61,14.59,14.18,0,15.69-15.41,24.77-36.19,32.34C425.27,261.5,414,258.2,414,246Zm58.64-7c0-4.13-2.48-7-8.54-7H432.15a11.08,11.08,0,0,0-3.71,8.67c0,6.47,6.74,10.32,19.26,10.32C463.53,250.9,472.62,246.08,472.62,238.93ZM453.76,184.7c0-13.21-2.34-21.06-9.77-21.06-5.64,0-8.12,6.2-8.12,18.31,0,13.21,2.34,21.06,9.91,21.06C451.42,203,453.76,196.81,453.76,184.7Z"/><path class="a" d="M495.05,209.75v-42l-7.16.69v-2.2l24.91-4.55H515v48.45c0,6.2,2.48,8.81,6.89,8.81,3.3,0,5.78-1.38,9.22-3.44l3.85-2.2V167.77l-7.16.69-.13-2.2,24.22-4.55h2.2v47.9a49.14,49.14,0,0,0,1.52,12.8l6-.41.28,2.2L537.85,229l-2.61-13.35-23.13,14.45C498.07,230.12,495.05,223.65,495.05,209.75Z"/><path class="a" d="M623.59,212c-8.8,8.81-15.41,13.35-25.87,18.17-17.76,0-32.62-11.7-32.62-31.66,0-21.33,15.28-34.13,33.31-37.71,14,0,25.05,8.26,25.05,24.78v5.23H582.3c1.52,14.86,10.46,24.49,24,24.49,6.2,0,10.88-1.92,16.1-4.95Zm-41.42-25.46v2.06h21.19v-5.78c0-11.42-2.2-17.89-9.91-17.89C586,164.88,582.17,171.76,582.17,186.49Z"/></svg>