<?xml version="1.0" encoding="utf-8"?>
<!-- Generator: Adobe Illustrator 20.1.0, SVG Export Plug-In . SVG Version: 6.00 Build 0)  -->
<svg version="1.1" id="Layer_1" xmlns="http://www.w3.org/2000/svg" xmlns:xlink="http://www.w3.org/1999/xlink" x="0px" y="0px"
	 viewBox="0 0 65.2 38.9" style="enable-background:new 0 0 65.2 38.9;" xml:space="preserve">
<style type="text/css">
	.st0{fill:#FFFFFF;}
</style>
<g>
	<path class="st0" d="M0,37.4L3.2,37V14.2H0v-0.9h3.2v-0.5c0-3.2,1.3-5.4,3.5-7.3L13.1,0h5.8v5.2h-7.6L11.1,6
		c-0.3,1.2-0.4,2.5-0.4,5.8v1.7h6.6v0.9h-6.6v22.7l4.8,0.4v0.9H0V37.4z"/>
</g>
<g>
	<path class="st0" d="M18.8,31.6c0-4.1,2.9-6.5,6.9-8.6c-3.9-4.5-4.6-5.5-4.6-8c0-3.5,3.1-5.6,9.4-7.1c6,0,8.9,2.3,8.9,5.4
		c0,3-2.8,4.9-7.8,7.5l6.5,7.7l4-4.7l-3-0.3v-0.7h7.1v0.7l-2.9,0.3l-4.7,5.4l6.8,8.1l1.8,0.3v0.7h-8.1l-4.3-4.9
		c-1.5,1.7-3.9,3.8-6.1,5.5C23.2,38.9,18.8,36,18.8,31.6z M34.1,32.6l-7.9-9C24.4,25,24,26.8,24,28.3c0,3.3,2.6,6.1,6,6.1
		C31.7,34.5,32.8,33.9,34.1,32.6z M33.4,13.3c0-2.5-1.3-4.4-3.5-4.4c-2.1,0-3.2,1.4-3.2,3.6c0,1.9,1.4,4.1,4.4,7.7
		C33.1,18.2,33.4,15.5,33.4,13.3z"/>
</g>
<g>
	<path class="st0" d="M46.3,37.4l3.2-0.4V14.2h-3.2v-0.9h3.2v-0.5c0-3.2,1.3-5.4,3.5-7.3L59.4,0h5.8v5.2h-7.6L57.4,6
		C57.1,7.2,57,8.5,57,11.8v1.7h6.6v0.9H57v22.7l4.8,0.4v0.9H46.3V37.4z"/>
</g>
</svg>
