<svg xmlns="http://www.w3.org/2000/svg" viewBox="0 0 250 250"><title>export_icon_pause-outline</title><g id="play-circle"><path d="M480.7,158a122,122,0,1,1-86.3,35.7A121.2,121.2,0,0,1,480.7,158m0-3a125,125,0,1,0,125,125,125,125,0,0,0-125-125Z" transform="translate(-355.7 -155)"/></g><g id="Layer_2" data-name="Layer 2"><path d="M461.4,216.9V343.1H436.2V216.9h25.2m3-3H433.2V346.1h31.2V213.9Z" transform="translate(-355.7 -155)"/><path d="M523.8,216.9V343.1H498.6V216.9h25.2m3-3H495.6V346.1h31.2V213.9Z" transform="translate(-355.7 -155)"/></g></svg>