<svg xmlns="http://www.w3.org/2000/svg" viewBox="0 0 250 250"><title>export_icon_pause-outline-filled</title><g id="play-circle"><path d="M480.7,403.5A123.5,123.5,0,1,1,604.2,280,123.6,123.6,0,0,1,480.7,403.5Z" transform="translate(-355.7 -155)" fill="#ffcd61"/><path d="M480.7,158a122,122,0,1,1-86.3,35.7A121.2,121.2,0,0,1,480.7,158m0-3a125,125,0,1,0,125,125,125,125,0,0,0-125-125Z" transform="translate(-355.7 -155)"/></g><g id="Layer_2" data-name="Layer 2"><rect x="79.1" y="60.4" width="28.2" height="129.21" fill="#fff"/><path d="M461.4,216.9V343.1H436.2V216.9h25.2m3-3H433.2V346.1h31.2V213.9Z" transform="translate(-355.7 -155)"/><rect x="141.4" y="60.4" width="28.2" height="129.21" fill="#fff"/><path d="M523.8,216.9V343.1H498.6V216.9h25.2m3-3H495.6V346.1h31.2V213.9Z" transform="translate(-355.7 -155)"/></g></svg>