<svg xmlns="http://www.w3.org/2000/svg" viewBox="0 0 250 250"><title>export_icon_play-outline-filled</title><g id="play-circle"><path d="M480.7,403.5A123.5,123.5,0,1,1,604.2,280,123.6,123.6,0,0,1,480.7,403.5Z" transform="translate(-355.7 -155)" fill="#ffcd61"/><path d="M480.7,158a122,122,0,1,1-86.3,35.7A121.2,121.2,0,0,1,480.7,158m0-3a125,125,0,1,0,125,125,125,125,0,0,0-125-125Z" transform="translate(-355.7 -155)"/></g><g id="play-triangle"><polygon points="79.8 53.7 203.4 125 79.8 196.3 79.8 53.7" fill="#fff"/><path d="M437,211.3,556,280,437,348.7V211.3m-3-5.2V353.9L562,280,434,206.1Z" transform="translate(-355.7 -155)"/></g></svg>